<svg xmlns="http://www.w3.org/2000/svg" viewBox="0 0 512 512" width="512" height="512" role="img" aria-label="Icono de Hand Sing Kids, concepto C"><rect x="8" y="8" width="496" height="496" rx="116" fill="#FFCC00"/><rect x="266" y="74" width="62" height="280" rx="31" fill="#141414"/><path d="M281,116 Q297,100 313,116" fill="none" stroke="#FFCC00" stroke-width="7" stroke-linecap="round"/><ellipse cx="226" cy="368" rx="92" ry="70" fill="#141414" transform="rotate(-18 226 368)"/><path d="M170,352 Q200,334 232,344 M176,382 Q206,364 240,374" fill="none" stroke="#FFCC00" stroke-width="7" stroke-linecap="round" transform="rotate(-18 226 368)"/><path d="M328,86 C330,150 424,160 410,256 C398,214 364,194 328,186 Z" fill="#141414"/><path d="M96,150 Q62,200 96,250 M60,128 Q8,200 60,272" fill="none" stroke="#1FA99B" stroke-width="16" stroke-linecap="round" transform="translate(40 -6)"/></svg>