<svg xmlns="http://www.w3.org/2000/svg" viewBox="0 0 1080 651" font-family="Helvetica, Arial, sans-serif" role="img" aria-label="BPMN 2.0 To-Be: sesión de práctica con Hand Sing Kids" width="1080" height="651"><rect width="1080" height="651" fill="#fff"/><defs><marker id="arr" viewBox="0 0 10 10" refX="9" refY="5" markerWidth="8" markerHeight="8" orient="auto-start-reverse"><path d="M0,0 L10,5 L0,10 z" fill="#141414"/></marker><marker id="arrO" viewBox="0 0 10 10" refX="9" refY="5" markerWidth="8" markerHeight="8" orient="auto-start-reverse"><path d="M0,0 L10,5 L0,10 z" fill="#fff" stroke="#141414" stroke-width="1.2"/></marker><marker id="dot" viewBox="0 0 10 10" refX="5" refY="5" markerWidth="7" markerHeight="7"><circle cx="5" cy="5" r="3.6" fill="#fff" stroke="#141414" stroke-width="1.4"/></marker><marker id="arrR" viewBox="0 0 10 10" refX="9" refY="5" markerWidth="8" markerHeight="8" orient="auto-start-reverse"><path d="M0,0 L10,5 L0,10 z" fill="#B3261E"/></marker></defs><rect x="10" y="6" width="1060" height="88" rx="0" fill="#fff" stroke="#141414" stroke-width="1.8"/><rect x="10" y="6" width="34" height="88" rx="0" fill="#F5F5F5" stroke="#141414" stroke-width="1.8"/><text x="27.0" y="41.46" font-size="14" text-anchor="middle" dominant-baseline="central" font-weight="700" fill="#141414" transform="rotate(-90 27.0 50.0)"><tspan x="27.0" dy="0">Niño o</tspan><tspan x="27.0" dy="17.08">niña</tspan></text><circle cx="100" cy="50" r="15" fill="#fff" stroke="#141414" stroke-width="1.6"/><text x="100" y="78.0" font-size="13.5" text-anchor="middle" dominant-baseline="central" font-weight="500" fill="#141414">Abre la app</text><rect x="140.0" y="20.0" width="104" height="60" rx="9" fill="#fff" stroke="#141414" stroke-width="1.6"/><text x="196" y="45.765" font-size="13.5" text-anchor="middle" dominant-baseline="central" font-weight="500" fill="#141414"><tspan x="196" dy="0">Elige su</tspan><tspan x="196" dy="16.47">perfil</tspan></text><circle cx="151.0" cy="29.0" r="3.2" fill="none" stroke="#141414" stroke-width="1.1"/><path d="M145.0,38.0 q6,-7 12,0" fill="none" stroke="#141414" stroke-width="1.1"/><polygon points="284,29 305,50 284,71 263,50" fill="#fff" stroke="#141414" stroke-width="1.8"/><line x1="275.18" y1="41.18" x2="292.82" y2="58.82" stroke="#141414" stroke-width="2.4"/><line x1="275.18" y1="58.82" x2="292.82" y2="41.18" stroke="#141414" stroke-width="2.4"/><rect x="328.0" y="20.0" width="104" height="60" rx="9" fill="#fff" stroke="#141414" stroke-width="1.6"/><text x="384" y="37.53" font-size="13.5" text-anchor="middle" dominant-baseline="central" font-weight="500" fill="#141414"><tspan x="384" dy="0">Ve la</tspan><tspan x="384" dy="16.47">actividad y</tspan><tspan x="384" dy="16.47">la nota</tspan></text><circle cx="339.0" cy="29.0" r="3.2" fill="none" stroke="#141414" stroke-width="1.1"/><path d="M333.0,38.0 q6,-7 12,0" fill="none" stroke="#141414" stroke-width="1.1"/><rect x="443.0" y="20.0" width="108" height="60" rx="9" fill="#fff" stroke="#141414" stroke-width="1.6"/><text x="501" y="37.53" font-size="13.5" text-anchor="middle" dominant-baseline="central" font-weight="500" fill="#141414"><tspan x="501" dy="0">Hace la seña</tspan><tspan x="501" dy="16.47">ante la</tspan><tspan x="501" dy="16.47">cámara</tspan></text><circle cx="454.0" cy="29.0" r="3.2" fill="none" stroke="#141414" stroke-width="1.1"/><path d="M448.0,38.0 q6,-7 12,0" fill="none" stroke="#141414" stroke-width="1.1"/><rect x="829.0" y="20.0" width="112" height="60" rx="9" fill="#fff" stroke="#141414" stroke-width="1.6"/><text x="889" y="37.53" font-size="13.5" text-anchor="middle" dominant-baseline="central" font-weight="500" fill="#141414"><tspan x="889" dy="0">Oye la nota</tspan><tspan x="889" dy="16.47">y ve el</tspan><tspan x="889" dy="16.47">resultado</tspan></text><circle cx="840.0" cy="29.0" r="3.2" fill="none" stroke="#141414" stroke-width="1.1"/><path d="M834.0,38.0 q6,-7 12,0" fill="none" stroke="#141414" stroke-width="1.1"/><polygon points="965,29 986,50 965,71 944,50" fill="#fff" stroke="#141414" stroke-width="1.8"/><line x1="956.18" y1="41.18" x2="973.82" y2="58.82" stroke="#141414" stroke-width="2.4"/><line x1="956.18" y1="58.82" x2="973.82" y2="41.18" stroke="#141414" stroke-width="2.4"/><circle cx="1010" cy="50" r="14" fill="#fff" stroke="#141414" stroke-width="1.6"/><circle cx="1010" cy="50" r="10.5" fill="none" stroke="#141414" stroke-width="1.2"/><rect x="1003.0" y="44.96" width="14.0" height="10.08" fill="none" stroke="#141414" stroke-width="1.1"/><path d="M1003.0,44.96 L1010,50.35 L1017.0,44.96" fill="none" stroke="#141414" stroke-width="1.1"/><circle cx="1048" cy="50" r="13" fill="#fff" stroke="#141414" stroke-width="4"/><path d="M116,50 L140,50" fill="none" stroke="#141414" stroke-width="1.5" marker-end="url(#arr)" stroke-linejoin="round"/><path d="M244,50 L263,50" fill="none" stroke="#141414" stroke-width="1.5" marker-end="url(#arr)" stroke-linejoin="round"/><path d="M305,50 L328,50" fill="none" stroke="#141414" stroke-width="1.5" marker-end="url(#arr)" stroke-linejoin="round"/><path d="M432,50 L443,50" fill="none" stroke="#141414" stroke-width="1.5" marker-end="url(#arr)" stroke-linejoin="round"/><path d="M551,50 L829,50" fill="none" stroke="#141414" stroke-width="1.5" marker-end="url(#arr)" stroke-linejoin="round"/><path d="M941,50 L944,50" fill="none" stroke="#141414" stroke-width="1.5" marker-end="url(#arr)" stroke-linejoin="round"/><path d="M986,50 L996,50" fill="none" stroke="#141414" stroke-width="1.5" marker-end="url(#arr)" stroke-linejoin="round"/><path d="M1024,50 L1035,50" fill="none" stroke="#141414" stroke-width="1.5" marker-end="url(#arr)" stroke-linejoin="round"/><path d="M965,29 L965,13 L284,13 L284,29" fill="none" stroke="#141414" stroke-width="1.5" marker-end="url(#arr)" stroke-linejoin="round"/><text x="690" y="25.0" font-size="13.5" text-anchor="middle" dominant-baseline="central" font-weight="600" fill="#404040">¿Cerró la sesión? No: continúa</text><text x="1062" y="82.0" font-size="13.5" text-anchor="end" dominant-baseline="central" font-weight="600" fill="#141414">Sí: descanso</text><rect x="10" y="102" width="1060" height="455" rx="0" fill="#fff" stroke="#141414" stroke-width="1.8"/><rect x="10" y="102" width="34" height="455" rx="0" fill="#F5F5F5" stroke="#141414" stroke-width="1.8"/><text x="27.0" y="329.5" font-size="14" text-anchor="middle" dominant-baseline="central" font-weight="700" fill="#141414" transform="rotate(-90 27.0 329.5)">Sistema Hand Sing Kids (local)</text><rect x="44" y="102" width="28" height="120" rx="0" fill="#fff" stroke="#141414" stroke-width="1.2"/><text x="58.0" y="162.0" font-size="13.5" text-anchor="middle" dominant-baseline="central" font-weight="600" fill="#141414" transform="rotate(-90 58.0 162.0)">Planificación</text><line x1="44" y1="222" x2="1070" y2="222" stroke="#141414" stroke-width="1.2"/><rect x="44" y="222" width="28" height="145" rx="0" fill="#fff" stroke="#141414" stroke-width="1.2"/><text x="58.0" y="294.5" font-size="13.5" text-anchor="middle" dominant-baseline="central" font-weight="600" fill="#141414" transform="rotate(-90 58.0 294.5)">Visión artificial</text><line x1="44" y1="367" x2="1070" y2="367" stroke="#141414" stroke-width="1.2"/><rect x="44" y="367" width="28" height="190" rx="0" fill="#fff" stroke="#141414" stroke-width="1.2"/><text x="58.0" y="462.0" font-size="13.5" text-anchor="middle" dominant-baseline="central" font-weight="600" fill="#141414" transform="rotate(-90 58.0 462.0)">Evaluación y datos</text><circle cx="112" cy="168" r="15" fill="#fff" stroke="#141414" stroke-width="1.6"/><rect x="104.5" y="162.6" width="15.0" height="10.799999999999999" fill="none" stroke="#141414" stroke-width="1.1"/><path d="M104.5,162.6 L112,168.375 L119.5,162.6" fill="none" stroke="#141414" stroke-width="1.1"/><text x="112" y="196.0" font-size="13.5" text-anchor="middle" dominant-baseline="central" font-weight="500" fill="#141414">Inicio</text><rect x="153.0" y="136.0" width="104" height="64" rx="9" fill="#FFF1BF" stroke="#141414" stroke-width="1.6"/><text x="209" y="155.53" font-size="13.5" text-anchor="middle" dominant-baseline="central" font-weight="500" fill="#141414"><tspan x="209" dy="0">Planificar</tspan><tspan x="209" dy="16.47">la ruta del</tspan><tspan x="209" dy="16.47">día (MILP)</tspan></text><circle cx="164.0" cy="147.0" r="4.2" fill="none" stroke="#141414" stroke-width="1.1"/><circle cx="164.0" cy="147.0" r="1.4" fill="#141414"/><polygon points="290,147 311,168 290,189 269,168" fill="#fff" stroke="#141414" stroke-width="1.8"/><line x1="281.18" y1="159.18" x2="298.82" y2="176.82" stroke="#141414" stroke-width="2.4"/><line x1="281.18" y1="176.82" x2="298.82" y2="159.18" stroke="#141414" stroke-width="2.4"/><rect x="328.0" y="136.0" width="104" height="64" rx="9" fill="#FFF1BF" stroke="#141414" stroke-width="1.6"/><text x="384" y="155.53" font-size="13.5" text-anchor="middle" dominant-baseline="central" font-weight="500" fill="#141414"><tspan x="384" dy="0">Presentar</tspan><tspan x="384" dy="16.47">la</tspan><tspan x="384" dy="16.47">actividad</tspan></text><circle cx="339.0" cy="147.0" r="4.2" fill="none" stroke="#141414" stroke-width="1.1"/><circle cx="339.0" cy="147.0" r="1.4" fill="#141414"/><rect x="545.0" y="136.0" width="110" height="64" rx="9" fill="#FFF1BF" stroke="#141414" stroke-width="1.6"/><text x="604" y="155.53" font-size="13.5" text-anchor="middle" dominant-baseline="central" font-weight="500" fill="#141414"><tspan x="604" dy="0">Decidir la</tspan><tspan x="604" dy="16.47">acción</tspan><tspan x="604" dy="16.47">(reglas)</tspan></text><circle cx="556.0" cy="147.0" r="4.2" fill="none" stroke="#141414" stroke-width="1.1"/><circle cx="556.0" cy="147.0" r="1.4" fill="#141414"/><polygon points="700,146 722,168 700,190 678,168" fill="#fff" stroke="#141414" stroke-width="1.8"/><line x1="690.76" y1="158.76" x2="709.24" y2="177.24" stroke="#141414" stroke-width="2.4"/><line x1="690.76" y1="177.24" x2="709.24" y2="158.76" stroke="#141414" stroke-width="2.4"/><text x="700" y="201.0" font-size="13.5" text-anchor="middle" dominant-baseline="central" font-weight="600" fill="#141414">¿F ≥ 1?</text><rect x="743.0" y="136.0" width="104" height="64" rx="9" fill="#FFF1BF" stroke="#141414" stroke-width="1.6"/><text x="799" y="155.53" font-size="13.5" text-anchor="middle" dominant-baseline="central" font-weight="500" fill="#141414"><tspan x="799" dy="0">Cerrar y</tspan><tspan x="799" dy="16.47">sugerir</tspan><tspan x="799" dy="16.47">descanso</tspan></text><circle cx="754.0" cy="147.0" r="4.2" fill="none" stroke="#141414" stroke-width="1.1"/><circle cx="754.0" cy="147.0" r="1.4" fill="#141414"/><circle cx="870" cy="168" r="14" fill="#fff" stroke="#141414" stroke-width="4"/><path d="M128,168 L153,168" fill="none" stroke="#141414" stroke-width="1.5" marker-end="url(#arr)" stroke-linejoin="round"/><path d="M257,168 L269,168" fill="none" stroke="#141414" stroke-width="1.5" marker-end="url(#arr)" stroke-linejoin="round"/><path d="M311,168 L328,168" fill="none" stroke="#141414" stroke-width="1.5" marker-end="url(#arr)" stroke-linejoin="round"/><path d="M655,168 L678,168" fill="none" stroke="#141414" stroke-width="1.5" marker-end="url(#arr)" stroke-linejoin="round"/><path d="M722,168 L743,168" fill="none" stroke="#141414" stroke-width="1.5" marker-end="url(#arr)" stroke-linejoin="round"/><text x="732" y="156.0" font-size="13.5" text-anchor="middle" dominant-baseline="central" font-weight="600" fill="#404040">Sí</text><path d="M847,168 L856,168" fill="none" stroke="#141414" stroke-width="1.5" marker-end="url(#arr)" stroke-linejoin="round"/><path d="M700,146 L700,114 L290,114 L290,147" fill="none" stroke="#141414" stroke-width="1.5" marker-end="url(#arr)" stroke-linejoin="round"/><text x="500" y="126.0" font-size="13.5" text-anchor="middle" dominant-baseline="central" font-weight="600" fill="#404040">No: siguiente actividad</text><polygon points="380,263 401,284 380,305 359,284" fill="#fff" stroke="#141414" stroke-width="1.8"/><line x1="371.18" y1="275.18" x2="388.82" y2="292.82" stroke="#141414" stroke-width="2.4"/><line x1="371.18" y1="292.82" x2="388.82" y2="275.18" stroke="#141414" stroke-width="2.4"/><rect x="427.0" y="252.0" width="120" height="64" rx="9" fill="#FFF1BF" stroke="#141414" stroke-width="1.6"/><text x="491" y="271.53" font-size="13.5" text-anchor="middle" dominant-baseline="central" font-weight="500" fill="#141414"><tspan x="491" dy="0">Detectar manos</tspan><tspan x="491" dy="16.47">y extraer el</tspan><tspan x="491" dy="16.47">descriptor</tspan></text><circle cx="438.0" cy="263.0" r="4.2" fill="none" stroke="#141414" stroke-width="1.1"/><circle cx="438.0" cy="263.0" r="1.4" fill="#141414"/><rect x="560.0" y="252.0" width="104" height="64" rx="9" fill="#FFF1BF" stroke="#141414" stroke-width="1.6"/><text x="616" y="271.53" font-size="13.5" text-anchor="middle" dominant-baseline="central" font-weight="500" fill="#141414"><tspan x="616" dy="0">Clasificar</tspan><tspan x="616" dy="16.47">y</tspan><tspan x="616" dy="16.47">estabilizar</tspan></text><circle cx="571.0" cy="263.0" r="4.2" fill="none" stroke="#141414" stroke-width="1.1"/><circle cx="571.0" cy="263.0" r="1.4" fill="#141414"/><polygon points="712,262 734,284 712,306 690,284" fill="#fff" stroke="#141414" stroke-width="1.8"/><line x1="702.76" y1="274.76" x2="721.24" y2="293.24" stroke="#141414" stroke-width="2.4"/><line x1="702.76" y1="293.24" x2="721.24" y2="274.76" stroke="#141414" stroke-width="2.4"/><text x="712" y="237.0" font-size="13.5" text-anchor="middle" dominant-baseline="central" font-weight="600" fill="#141414">¿Seña aceptada? d ≤ 0,95; P ≥ 0,55; margen ≥ 0,08</text><polygon points="790,262 812,284 790,306 768,284" fill="#fff" stroke="#141414" stroke-width="1.8"/><line x1="778.912" y1="284" x2="801.088" y2="284" stroke="#141414" stroke-width="2.6"/><line x1="790" y1="272.912" x2="790" y2="295.088" stroke="#141414" stroke-width="2.6"/><rect x="833.0" y="252.0" width="104" height="64" rx="9" fill="#FFF1BF" stroke="#141414" stroke-width="1.6"/><text x="889" y="271.53" font-size="13.5" text-anchor="middle" dominant-baseline="central" font-weight="500" fill="#141414"><tspan x="889" dy="0">Sintetizar</tspan><tspan x="889" dy="16.47">la nota y</tspan><tspan x="889" dy="16.47">dibujar</tspan></text><circle cx="844.0" cy="263.0" r="4.2" fill="none" stroke="#141414" stroke-width="1.1"/><circle cx="844.0" cy="263.0" r="1.4" fill="#141414"/><circle cx="975" cy="284" r="15" fill="#fff" stroke="#141414" stroke-width="4"/><text x="1000" y="318.15" font-size="13.5" text-anchor="middle" dominant-baseline="central" font-weight="500" fill="#141414"><tspan x="1000" dy="0">Retro-</tspan><tspan x="1000" dy="16.47">alimentación</tspan></text><path d="M380,200 L380,263" fill="none" stroke="#141414" stroke-width="1.5" marker-end="url(#arr)" stroke-linejoin="round"/><path d="M401,284 L427,284" fill="none" stroke="#141414" stroke-width="1.5" marker-end="url(#arr)" stroke-linejoin="round"/><path d="M547,284 L560,284" fill="none" stroke="#141414" stroke-width="1.5" marker-end="url(#arr)" stroke-linejoin="round"/><path d="M664,284 L690,284" fill="none" stroke="#141414" stroke-width="1.5" marker-end="url(#arr)" stroke-linejoin="round"/><path d="M734,284 L768,284" fill="none" stroke="#141414" stroke-width="1.5" marker-end="url(#arr)" stroke-linejoin="round"/><text x="751" y="272.0" font-size="13.5" text-anchor="middle" dominant-baseline="central" font-weight="600" fill="#404040">Sí</text><path d="M812,284 L833,284" fill="none" stroke="#141414" stroke-width="1.5" marker-end="url(#arr)" stroke-linejoin="round"/><path d="M937,284 L959,284" fill="none" stroke="#141414" stroke-width="1.5" marker-end="url(#arr)" stroke-linejoin="round"/><path d="M712,306 L712,331 L566,331" fill="none" stroke="#141414" stroke-width="1.5" marker-end="url(#arr)" stroke-linejoin="round"/><text x="722" y="318.0" font-size="13.5" text-anchor="start" dominant-baseline="central" font-weight="600" fill="#404040">No</text><circle cx="550" cy="331" r="15" fill="#fff" stroke="#141414" stroke-width="1.6"/><circle cx="550" cy="331" r="11.5" fill="none" stroke="#141414" stroke-width="1.2"/><circle cx="550" cy="331" r="8" fill="none" stroke="#141414" stroke-width="1.1"/><path d="M550,324.5 L550,331 L553.6,333.4" fill="none" stroke="#141414" stroke-width="1.1"/><text x="550" y="361.15" font-size="13.5" text-anchor="middle" dominant-baseline="central" font-weight="500" fill="#141414">Siguiente fotograma (≈ 42 ms)</text><path d="M534,331 L380,331 L380,305" fill="none" stroke="#141414" stroke-width="1.5" marker-end="url(#arr)" stroke-linejoin="round"/><path d="M790,306 L790,379 L205,379 L205,437" fill="none" stroke="#141414" stroke-width="1.5" marker-end="url(#arr)" stroke-linejoin="round"/><rect x="151.0" y="437.0" width="108" height="56" rx="9" fill="#FFF1BF" stroke="#141414" stroke-width="1.6"/><text x="209" y="460.765" font-size="13.5" text-anchor="middle" dominant-baseline="central" font-weight="500" fill="#141414"><tspan x="209" dy="0">Evaluar el</tspan><tspan x="209" dy="16.47">paso</tspan></text><circle cx="162.0" cy="448.0" r="4.2" fill="none" stroke="#141414" stroke-width="1.1"/><circle cx="162.0" cy="448.0" r="1.4" fill="#141414"/><polygon points="315,443 337,465 315,487 293,465" fill="#fff" stroke="#141414" stroke-width="1.8"/><line x1="305.76" y1="455.76" x2="324.24" y2="474.24" stroke="#141414" stroke-width="2.4"/><line x1="305.76" y1="474.24" x2="324.24" y2="455.76" stroke="#141414" stroke-width="2.4"/><text x="315" y="421.53" font-size="13.5" text-anchor="middle" dominant-baseline="central" font-weight="600" fill="#141414"><tspan x="315" dy="0">¿Terminó la</tspan><tspan x="315" dy="16.47">actividad?</tspan></text><polygon points="400,443 422,465 400,487 378,465" fill="#fff" stroke="#141414" stroke-width="1.8"/><circle cx="400" cy="465" r="9.702" fill="none" stroke="#141414" stroke-width="2.4"/><rect x="530.0" y="389.0" width="140" height="44" rx="9" fill="#FFF1BF" stroke="#141414" stroke-width="1.6"/><text x="604" y="406.765" font-size="13.5" text-anchor="middle" dominant-baseline="central" font-weight="500" fill="#141414"><tspan x="604" dy="0">Dar estrellas y</tspan><tspan x="604" dy="16.47">logros</tspan></text><circle cx="541.0" cy="400.0" r="4.2" fill="none" stroke="#141414" stroke-width="1.1"/><circle cx="541.0" cy="400.0" r="1.4" fill="#141414"/><rect x="530.0" y="443.0" width="140" height="44" rx="9" fill="#FFF1BF" stroke="#141414" stroke-width="1.6"/><text x="604" y="460.765" font-size="13.5" text-anchor="middle" dominant-baseline="central" font-weight="500" fill="#141414"><tspan x="604" dy="0">Guardar intentos,</tspan><tspan x="604" dy="16.47">dominio y repaso</tspan></text><circle cx="541.0" cy="454.0" r="4.2" fill="none" stroke="#141414" stroke-width="1.1"/><circle cx="541.0" cy="454.0" r="1.4" fill="#141414"/><rect x="530.0" y="497.0" width="140" height="44" rx="9" fill="#FFF1BF" stroke="#141414" stroke-width="1.6"/><text x="604" y="514.765" font-size="13.5" text-anchor="middle" dominant-baseline="central" font-weight="500" fill="#141414"><tspan x="604" dy="0">Abrir habilidades</tspan><tspan x="604" dy="16.47">nuevas</tspan></text><circle cx="541.0" cy="508.0" r="4.2" fill="none" stroke="#141414" stroke-width="1.1"/><circle cx="541.0" cy="508.0" r="1.4" fill="#141414"/><polygon points="710,443 732,465 710,487 688,465" fill="#fff" stroke="#141414" stroke-width="1.8"/><circle cx="710" cy="465" r="9.702" fill="none" stroke="#141414" stroke-width="2.4"/><path d="M259,465 L293,465" fill="none" stroke="#141414" stroke-width="1.5" marker-end="url(#arr)" stroke-linejoin="round"/><path d="M337,465 L378,465" fill="none" stroke="#141414" stroke-width="1.5" marker-end="url(#arr)" stroke-linejoin="round"/><text x="356" y="453.0" font-size="13.5" text-anchor="middle" dominant-baseline="central" font-weight="600" fill="#404040">Sí</text><path d="M400,443 L400,411 L530,411" fill="none" stroke="#141414" stroke-width="1.5" marker-end="url(#arr)" stroke-linejoin="round"/><path d="M422,465 L530,465" fill="none" stroke="#141414" stroke-width="1.5" marker-end="url(#arr)" stroke-linejoin="round"/><path d="M400,487 L400,519 L530,519" fill="none" stroke="#141414" stroke-width="1.5" marker-end="url(#arr)" stroke-linejoin="round"/><text x="408" y="399.0" font-size="13.5" text-anchor="start" dominant-baseline="central" font-weight="500" fill="#404040">si mejora el récord</text><text x="428" y="454.0" font-size="13.5" text-anchor="start" dominant-baseline="central" font-weight="500" fill="#404040">siempre</text><text x="408" y="533.0" font-size="13.5" text-anchor="start" dominant-baseline="central" font-weight="500" fill="#404040">si hay prerrequisitos</text><path d="M670,411 L710,411 L710,443" fill="none" stroke="#141414" stroke-width="1.5" marker-end="url(#arr)" stroke-linejoin="round"/><path d="M670,465 L688,465" fill="none" stroke="#141414" stroke-width="1.5" marker-end="url(#arr)" stroke-linejoin="round"/><path d="M670,519 L710,519 L710,487" fill="none" stroke="#141414" stroke-width="1.5" marker-end="url(#arr)" stroke-linejoin="round"/><path d="M732,465 L1058,465 L1058,218 L600,218 L600,200" fill="none" stroke="#141414" stroke-width="1.5" marker-end="url(#arr)" stroke-linejoin="round"/><path d="M315,487 L315,548 L128,548 L128,284 L359,284" fill="none" stroke="#141414" stroke-width="1.5" marker-end="url(#arr)" stroke-linejoin="round"/><text x="138" y="536.0" font-size="13.5" text-anchor="start" dominant-baseline="central" font-weight="600" fill="#404040">No: siguiente nota</text><circle cx="760" cy="515" r="15" fill="#fff" stroke="#141414" stroke-width="1.6"/><rect x="752.5" y="509.6" width="15.0" height="10.799999999999999" fill="none" stroke="#141414" stroke-width="1.1"/><path d="M752.5,509.6 L760,515.375 L767.5,509.6" fill="none" stroke="#141414" stroke-width="1.1"/><rect x="795.0" y="487.0" width="150" height="56" rx="9" fill="#FFF1BF" stroke="#141414" stroke-width="1.6"/><text x="874" y="502.53" font-size="13.5" text-anchor="middle" dominant-baseline="central" font-weight="500" fill="#141414"><tspan x="874" dy="0">Construir el gemelo</tspan><tspan x="874" dy="16.47">digital y el</tspan><tspan x="874" dy="16.47">informe</tspan></text><circle cx="806.0" cy="498.0" r="4.2" fill="none" stroke="#141414" stroke-width="1.1"/><circle cx="806.0" cy="498.0" r="1.4" fill="#141414"/><circle cx="985" cy="515" r="15" fill="#fff" stroke="#141414" stroke-width="4"/><rect x="977.5" y="509.6" width="15.0" height="10.799999999999999" fill="#141414" stroke="#141414" stroke-width="1.1"/><path d="M977.5,509.6 L985,515.375 L992.5,509.6" fill="none" stroke="#fff" stroke-width="1.1"/><path d="M776,515 L795,515" fill="none" stroke="#141414" stroke-width="1.5" marker-end="url(#arr)" stroke-linejoin="round"/><path d="M945,515 L969,515" fill="none" stroke="#141414" stroke-width="1.5" marker-end="url(#arr)" stroke-linejoin="round"/><rect x="10" y="565" width="1060" height="80" rx="0" fill="#fff" stroke="#141414" stroke-width="1.8"/><rect x="10" y="565" width="34" height="80" rx="0" fill="#F5F5F5" stroke="#141414" stroke-width="1.8"/><text x="27.0" y="596.46" font-size="14" text-anchor="middle" dominant-baseline="central" font-weight="700" fill="#141414" transform="rotate(-90 27.0 605.0)"><tspan x="27.0" dy="0">Acudiente</tspan><tspan x="27.0" dy="17.08">o docente</tspan></text><circle cx="560" cy="605" r="15" fill="#fff" stroke="#141414" stroke-width="1.6"/><text x="542" y="605.0" font-size="13.5" text-anchor="end" dominant-baseline="central" font-weight="500" fill="#141414">Quiere ver el avance</text><rect x="618.0" y="578.0" width="124" height="54" rx="9" fill="#fff" stroke="#141414" stroke-width="1.6"/><text x="684" y="592.53" font-size="13.5" text-anchor="middle" dominant-baseline="central" font-weight="500" fill="#141414"><tspan x="684" dy="0">Consulta la</tspan><tspan x="684" dy="16.47">Zona de</tspan><tspan x="684" dy="16.47">Padres</tspan></text><circle cx="629.0" cy="587.0" r="3.2" fill="none" stroke="#141414" stroke-width="1.1"/><path d="M623.0,596.0 q6,-7 12,0" fill="none" stroke="#141414" stroke-width="1.1"/><circle cx="950" cy="605" r="15" fill="#fff" stroke="#141414" stroke-width="1.6"/><circle cx="950" cy="605" r="11.5" fill="none" stroke="#141414" stroke-width="1.2"/><rect x="942.5" y="599.6" width="15.0" height="10.799999999999999" fill="none" stroke="#141414" stroke-width="1.1"/><path d="M942.5,599.6 L950,605.375 L957.5,599.6" fill="none" stroke="#141414" stroke-width="1.1"/><text x="922" y="629.0" font-size="13.5" text-anchor="end" dominant-baseline="central" font-weight="500" fill="#141414">Recibe el informe</text><circle cx="1045" cy="605" r="15" fill="#fff" stroke="#141414" stroke-width="4"/><text x="1066" y="629.0" font-size="13.5" text-anchor="end" dominant-baseline="central" font-weight="500" fill="#141414">Decide qué reforzar</text><path d="M576,605 L618,605" fill="none" stroke="#141414" stroke-width="1.5" marker-end="url(#arr)" stroke-linejoin="round"/><path d="M742,605 L934,605" fill="none" stroke="#141414" stroke-width="1.5" marker-end="url(#arr)" stroke-linejoin="round"/><path d="M966,605 L1029,605" fill="none" stroke="#141414" stroke-width="1.5" marker-end="url(#arr)" stroke-linejoin="round"/><path d="M192,80 L192,98 L112,98 L112,152" fill="none" stroke="#141414" stroke-width="1.4" stroke-dasharray="6 4" marker-end="url(#arrO)" marker-start="url(#dot)" stroke-linejoin="round"/><path d="M380,136 L380,80" fill="none" stroke="#141414" stroke-width="1.4" stroke-dasharray="6 4" marker-end="url(#arrO)" marker-start="url(#dot)" stroke-linejoin="round"/><path d="M497,80 L497,252" fill="none" stroke="#141414" stroke-width="1.4" stroke-dasharray="6 4" marker-end="url(#arrO)" marker-start="url(#dot)" stroke-linejoin="round"/><text x="559" y="86.0" font-size="13.5" text-anchor="start" dominant-baseline="central" font-weight="500" fill="#404040" font-style="italic">Fotogramas (solo en RAM)</text><path d="M905,252 L905,80" fill="none" stroke="#141414" stroke-width="1.4" stroke-dasharray="6 4" marker-end="url(#arrO)" marker-start="url(#dot)" stroke-linejoin="round"/><text x="913" y="132.0" font-size="13.5" text-anchor="start" dominant-baseline="central" font-weight="500" fill="#404040" font-style="italic">Nota sonora</text><path d="M795,136 L795,98 L1010,98 L1010,64" fill="none" stroke="#141414" stroke-width="1.4" stroke-dasharray="6 4" marker-end="url(#arrO)" marker-start="url(#dot)" stroke-linejoin="round"/><path d="M680,578 L680,561 L760,561 L760,531" fill="none" stroke="#141414" stroke-width="1.4" stroke-dasharray="6 4" marker-end="url(#arrO)" marker-start="url(#dot)" stroke-linejoin="round"/><text x="768" y="546.0" font-size="13.5" text-anchor="start" dominant-baseline="central" font-weight="500" fill="#404040" font-style="italic">Solicitud</text><text x="993" y="546.0" font-size="13.5" text-anchor="start" dominant-baseline="central" font-weight="500" fill="#404040" font-style="italic">Informe</text><path d="M985,531 L985,561 L950,561 L950,589" fill="none" stroke="#141414" stroke-width="1.4" stroke-dasharray="6 4" marker-end="url(#arrO)" marker-start="url(#dot)" stroke-linejoin="round"/></svg>