<svg xmlns="http://www.w3.org/2000/svg" viewBox="0 0 700 300" font-family="Helvetica, Arial, sans-serif" role="img" aria-label="BPMN As-Is simplificado" width="700" height="300"><rect width="700" height="300" fill="#fff"/><defs><marker id="arr" viewBox="0 0 10 10" refX="9" refY="5" markerWidth="8" markerHeight="8" orient="auto-start-reverse"><path d="M0,0 L10,5 L0,10 z" fill="#141414"/></marker><marker id="arrO" viewBox="0 0 10 10" refX="9" refY="5" markerWidth="8" markerHeight="8" orient="auto-start-reverse"><path d="M0,0 L10,5 L0,10 z" fill="#fff" stroke="#141414" stroke-width="1.2"/></marker><marker id="dot" viewBox="0 0 10 10" refX="5" refY="5" markerWidth="7" markerHeight="7"><circle cx="5" cy="5" r="3.6" fill="#fff" stroke="#141414" stroke-width="1.4"/></marker><marker id="arrR" viewBox="0 0 10 10" refX="9" refY="5" markerWidth="8" markerHeight="8" orient="auto-start-reverse"><path d="M0,0 L10,5 L0,10 z" fill="#B3261E"/></marker></defs><rect x="4" y="4" width="692" height="204" rx="0" fill="#fff" stroke="#141414" stroke-width="1.8"/><rect x="4" y="4" width="26" height="204" rx="0" fill="#F5F5F5" stroke="#141414" stroke-width="1.8"/><text x="17.0" y="106.0" font-size="13" text-anchor="middle" dominant-baseline="central" font-weight="700" fill="#141414" transform="rotate(-90 17.0 106.0)">Escuela de música</text><rect x="30" y="4" width="24" height="108" rx="0" fill="#fff" stroke="#141414" stroke-width="1.2"/><text x="42" y="58.0" font-size="11" text-anchor="middle" dominant-baseline="central" font-weight="600" fill="#141414" transform="rotate(-90 42 58.0)">Docente</text><line x1="30" y1="112" x2="696" y2="112" stroke="#141414" stroke-width="1.2"/><rect x="30" y="112" width="24" height="96" rx="0" fill="#fff" stroke="#141414" stroke-width="1.2"/><text x="42" y="160.0" font-size="11" text-anchor="middle" dominant-baseline="central" font-weight="600" fill="#141414" transform="rotate(-90 42 160.0)">Niño</text><circle cx="86" cy="66" r="13" fill="#fff" stroke="#141414" stroke-width="1.6"/><rect x="124.0" y="35.0" width="108" height="62" rx="9" fill="#fff" stroke="#141414" stroke-width="1.6"/><text x="178" y="59.85" font-size="15" text-anchor="middle" dominant-baseline="central" font-weight="500" fill="#141414"><tspan x="178" dy="0">Demuestra</tspan><tspan x="178" dy="18.3">la seña</tspan></text><circle cx="135.0" cy="44.0" r="3.2" fill="none" stroke="#141414" stroke-width="1.1"/><path d="M129.0,53.0 q6,-7 12,0" fill="none" stroke="#141414" stroke-width="1.1"/><rect x="249.0" y="33.0" width="110" height="66" rx="9" fill="#FBE9E7" stroke="#141414" stroke-width="1.6"/><text x="304" y="50.7" font-size="15" text-anchor="middle" dominant-baseline="central" font-weight="500" fill="#141414"><tspan x="304" dy="0">Observa y</tspan><tspan x="304" dy="18.3">corrige a</tspan><tspan x="304" dy="18.3">cada niño</tspan></text><circle cx="260.0" cy="42.0" r="3.2" fill="none" stroke="#141414" stroke-width="1.1"/><path d="M254.0,51.0 q6,-7 12,0" fill="none" stroke="#141414" stroke-width="1.1"/><polygon points="412,43 435,66 412,89 389,66" fill="#fff" stroke="#141414" stroke-width="1.8"/><line x1="402.34" y1="56.34" x2="421.66" y2="75.66" stroke="#141414" stroke-width="2.4"/><line x1="402.34" y1="75.66" x2="421.66" y2="56.34" stroke="#141414" stroke-width="2.4"/><text x="412" y="101.0" font-size="14" text-anchor="middle" dominant-baseline="central" font-weight="700" fill="#141414">¿Acertó?</text><rect x="472.0" y="35.0" width="112" height="62" rx="9" fill="#FBE9E7" stroke="#141414" stroke-width="1.6"/><text x="528" y="59.85" font-size="15" text-anchor="middle" dominant-baseline="central" font-weight="500" fill="#141414"><tspan x="528" dy="0">Anota en el</tspan><tspan x="528" dy="18.3">cuaderno</tspan></text><circle cx="483.0" cy="44.0" r="3.2" fill="none" stroke="#141414" stroke-width="1.1"/><path d="M477.0,53.0 q6,-7 12,0" fill="none" stroke="#141414" stroke-width="1.1"/><circle cx="636" cy="66" r="13" fill="#fff" stroke="#141414" stroke-width="4"/><rect x="124.0" y="132.0" width="108" height="56" rx="9" fill="#fff" stroke="#141414" stroke-width="1.6"/><text x="178" y="153.85" font-size="15" text-anchor="middle" dominant-baseline="central" font-weight="500" fill="#141414"><tspan x="178" dy="0">Imita la</tspan><tspan x="178" dy="18.3">seña</tspan></text><circle cx="135.0" cy="141.0" r="3.2" fill="none" stroke="#141414" stroke-width="1.1"/><path d="M129.0,150.0 q6,-7 12,0" fill="none" stroke="#141414" stroke-width="1.1"/><path d="M99,66 L126,66" fill="none" stroke="#141414" stroke-width="1.5" marker-end="url(#arr)" stroke-linejoin="round"/><path d="M232,66 L249,66" fill="none" stroke="#141414" stroke-width="1.5" marker-end="url(#arr)" stroke-linejoin="round"/><path d="M359,66 L389,66" fill="none" stroke="#141414" stroke-width="1.5" marker-end="url(#arr)" stroke-linejoin="round"/><path d="M435,66 L472,66" fill="none" stroke="#141414" stroke-width="1.5" marker-end="url(#arr)" stroke-linejoin="round"/><path d="M584,66 L623,66" fill="none" stroke="#141414" stroke-width="1.5" marker-end="url(#arr)" stroke-linejoin="round"/><path d="M178,94 L178,134" fill="none" stroke="#141414" stroke-width="1.5" marker-end="url(#arr)" stroke-linejoin="round"/><path d="M230,160 L304,160 L304,94" fill="none" stroke="#141414" stroke-width="1.5" marker-end="url(#arr)" stroke-linejoin="round"/><path d="M412,43 L412,24 L178,24 L178,38" fill="none" stroke="#141414" stroke-width="1.5" marker-end="url(#arr)" stroke-linejoin="round"/><text x="296" y="14.0" font-size="13" text-anchor="middle" dominant-baseline="central" font-weight="600" fill="#404040">No: repite</text><text x="455" y="53.0" font-size="13" text-anchor="middle" dominant-baseline="central" font-weight="700" fill="#141414">Sí</text><rect x="4" y="216" width="692" height="80" rx="0" fill="#fff" stroke="#141414" stroke-width="1.8"/><rect x="4" y="216" width="26" height="80" rx="0" fill="#F5F5F5" stroke="#141414" stroke-width="1.8"/><text x="17.0" y="256.0" font-size="13" text-anchor="middle" dominant-baseline="central" font-weight="700" fill="#141414" transform="rotate(-90 17.0 256.0)">Acudiente</text><circle cx="500" cy="258" r="13" fill="#fff" stroke="#141414" stroke-width="1.6"/><rect x="493.5" y="253.32" width="13.0" height="9.36" fill="none" stroke="#141414" stroke-width="1.1"/><path d="M493.5,253.32 L500,258.325 L506.5,253.32" fill="none" stroke="#141414" stroke-width="1.1"/><rect x="540.0" y="224.0" width="140" height="64" rx="9" fill="#FBE9E7" stroke="#141414" stroke-width="1.6"/><text x="610" y="240.7" font-size="15" text-anchor="middle" dominant-baseline="central" font-weight="500" fill="#141414"><tspan x="610" dy="0">Informe tardío</tspan><tspan x="610" dy="18.3">y sin detalle</tspan><tspan x="610" dy="18.3">por nota</tspan></text><circle cx="551.0" cy="233.0" r="3.2" fill="none" stroke="#141414" stroke-width="1.1"/><path d="M545.0,242.0 q6,-7 12,0" fill="none" stroke="#141414" stroke-width="1.1"/><path d="M513,258 L544,258" fill="none" stroke="#141414" stroke-width="1.5" marker-end="url(#arr)" stroke-linejoin="round"/><path d="M500,97 L500,243" fill="none" stroke="#141414" stroke-width="1.4" stroke-dasharray="6 4" marker-end="url(#arrO)" marker-start="url(#dot)" stroke-linejoin="round"/><text x="508" y="190.0" font-size="13" text-anchor="start" dominant-baseline="central" font-weight="500" fill="#404040" font-style="italic">Informe</text><circle cx="354" cy="36" r="10.5" fill="#B3261E"/><text x="354" y="36.5" font-size="11.5" text-anchor="middle" dominant-baseline="central" font-weight="700" fill="#fff">1</text><circle cx="572" cy="36" r="10.5" fill="#B3261E"/><text x="572" y="36.5" font-size="11.5" text-anchor="middle" dominant-baseline="central" font-weight="700" fill="#fff">2</text><circle cx="678" cy="228" r="10.5" fill="#B3261E"/><text x="678" y="228.5" font-size="11.5" text-anchor="middle" dominant-baseline="central" font-weight="700" fill="#fff">3</text></svg>