<svg xmlns="http://www.w3.org/2000/svg" viewBox="0 0 600 532" font-family="Helvetica, Arial, sans-serif" role="img" aria-label="BPMN To-Be simplificado" width="600" height="532"><rect width="600" height="532" fill="#fff"/><defs><marker id="arr" viewBox="0 0 10 10" refX="9" refY="5" markerWidth="8" markerHeight="8" orient="auto-start-reverse"><path d="M0,0 L10,5 L0,10 z" fill="#141414"/></marker><marker id="arrO" viewBox="0 0 10 10" refX="9" refY="5" markerWidth="8" markerHeight="8" orient="auto-start-reverse"><path d="M0,0 L10,5 L0,10 z" fill="#fff" stroke="#141414" stroke-width="1.2"/></marker><marker id="dot" viewBox="0 0 10 10" refX="5" refY="5" markerWidth="7" markerHeight="7"><circle cx="5" cy="5" r="3.6" fill="#fff" stroke="#141414" stroke-width="1.4"/></marker><marker id="arrR" viewBox="0 0 10 10" refX="9" refY="5" markerWidth="8" markerHeight="8" orient="auto-start-reverse"><path d="M0,0 L10,5 L0,10 z" fill="#B3261E"/></marker></defs><rect x="7" y="7.5" width="588" height="78" rx="6" fill="#D9D2BF" stroke="none" stroke-width="1.4"/><rect x="4" y="4" width="588" height="78" rx="6" fill="#fff" stroke="#141414" stroke-width="1.8"/><path d="M10,4 H38 V82 H10 Q4,82 4,76 V10 Q4,4 10,4 Z" fill="#141414"/><text x="21.0" y="43.0" font-size="18" text-anchor="middle" dominant-baseline="central" font-weight="800" fill="#FFCC00" transform="rotate(-90 21.0 43.0)">Niño</text><circle cx="92" cy="43" r="12" fill="#fff" stroke="#141414" stroke-width="1.6"/><rect x="124.5" y="18.0" width="100" height="56" rx="10" fill="#D9D2BF" stroke="none" stroke-width="1.4"/><rect x="122.0" y="15.0" width="100" height="56" rx="9" fill="#fff" stroke="#141414" stroke-width="1.8"/><text x="176" y="36.63" font-size="17" text-anchor="middle" dominant-baseline="central" font-weight="500" fill="#141414"><tspan x="176" dy="0">Hace la</tspan><tspan x="176" dy="20.74">seña</tspan></text><circle cx="133.0" cy="24.0" r="3.2" fill="none" stroke="#141414" stroke-width="1.1"/><path d="M127.0,33.0 q6,-7 12,0" fill="none" stroke="#141414" stroke-width="1.1"/><rect x="390.5" y="18.0" width="164" height="56" rx="10" fill="#D9D2BF" stroke="none" stroke-width="1.4"/><rect x="388.0" y="15.0" width="164" height="56" rx="9" fill="#fff" stroke="#141414" stroke-width="1.8"/><text x="474" y="36.63" font-size="17" text-anchor="middle" dominant-baseline="central" font-weight="500" fill="#141414"><tspan x="474" dy="0">Oye la nota y</tspan><tspan x="474" dy="20.74">ve el resultado</tspan></text><circle cx="399.0" cy="24.0" r="3.2" fill="none" stroke="#141414" stroke-width="1.1"/><path d="M393.0,33.0 q6,-7 12,0" fill="none" stroke="#141414" stroke-width="1.1"/><circle cx="576" cy="43" r="11" fill="#fff" stroke="#141414" stroke-width="4"/><path d="M104,43 L122,43" fill="none" stroke="#141414" stroke-width="1.9" marker-end="url(#arr)" stroke-linejoin="round"/><path d="M222,43 L388,43" fill="none" stroke="#141414" stroke-width="1.9" marker-end="url(#arr)" stroke-linejoin="round"/><path d="M552,43 L565,43" fill="none" stroke="#141414" stroke-width="1.9" marker-end="url(#arr)" stroke-linejoin="round"/><rect x="7" y="97.5" width="588" height="348" rx="6" fill="#D9D2BF" stroke="none" stroke-width="1.4"/><rect x="4" y="94" width="588" height="348" rx="6" fill="#fff" stroke="#141414" stroke-width="1.8"/><path d="M10,94 H38 V442 H10 Q4,442 4,436 V100 Q4,94 10,94 Z" fill="#141414"/><text x="21.0" y="268.0" font-size="18" text-anchor="middle" dominant-baseline="central" font-weight="800" fill="#FFCC00" transform="rotate(-90 21.0 268.0)">Sistema local</text><rect x="38" y="94" width="30" height="124" rx="0" fill="#FFF8E1" stroke="none" stroke-width="1.4"/><line x1="68" y1="94" x2="68" y2="218" stroke="#BDBDBD" stroke-width="1.1"/><text x="53.0" y="156.0" font-size="16" text-anchor="middle" dominant-baseline="central" font-weight="700" fill="#141414" transform="rotate(-90 53.0 156.0)">Visión</text><line x1="38" y1="218" x2="592" y2="218" stroke="#9A9A9A" stroke-width="1.1" stroke-dasharray="5 4"/><rect x="38" y="218" width="30" height="132" rx="0" fill="#FFF8E1" stroke="none" stroke-width="1.4"/><line x1="68" y1="218" x2="68" y2="350" stroke="#BDBDBD" stroke-width="1.1"/><text x="53.0" y="284.0" font-size="16" text-anchor="middle" dominant-baseline="central" font-weight="700" fill="#141414" transform="rotate(-90 53.0 284.0)">Evaluación</text><line x1="38" y1="350" x2="592" y2="350" stroke="#9A9A9A" stroke-width="1.1" stroke-dasharray="5 4"/><rect x="38" y="350" width="30" height="92" rx="0" fill="#FFF8E1" stroke="none" stroke-width="1.4"/><line x1="68" y1="350" x2="68" y2="442" stroke="#BDBDBD" stroke-width="1.1"/><text x="53.0" y="396.0" font-size="16" text-anchor="middle" dominant-baseline="central" font-weight="700" fill="#141414" transform="rotate(-90 53.0 396.0)">Planificación</text><circle cx="96" cy="148" r="12" fill="#fff" stroke="#141414" stroke-width="1.6"/><rect x="90.0" y="143.68" width="12.0" height="8.64" fill="none" stroke="#141414" stroke-width="1.1"/><path d="M90.0,143.68 L96,148.3 L102.0,143.68" fill="none" stroke="#141414" stroke-width="1.1"/><polygon points="140,131 157,148 140,165 123,148" fill="#fff" stroke="#141414" stroke-width="1.8"/><line x1="132.86" y1="140.86" x2="147.14" y2="155.14" stroke="#141414" stroke-width="2.4"/><line x1="132.86" y1="155.14" x2="147.14" y2="140.86" stroke="#141414" stroke-width="2.4"/><rect x="185.5" y="123.0" width="110" height="56" rx="10" fill="#D9D2BF" stroke="none" stroke-width="1.4"/><rect x="183.0" y="120.0" width="110" height="56" rx="9" fill="#FFF1BF" stroke="#141414" stroke-width="1.8"/><text x="242" y="141.63" font-size="17" text-anchor="middle" dominant-baseline="central" font-weight="500" fill="#141414"><tspan x="242" dy="0">Detectar y</tspan><tspan x="242" dy="20.74">clasificar</tspan></text><circle cx="194.0" cy="131.0" r="4.2" fill="none" stroke="#141414" stroke-width="1.1"/><circle cx="194.0" cy="131.0" r="1.4" fill="#141414"/><polygon points="330,129 349,148 330,167 311,148" fill="#fff" stroke="#141414" stroke-width="1.8"/><line x1="322.02" y1="140.02" x2="337.98" y2="155.98" stroke="#141414" stroke-width="2.4"/><line x1="322.02" y1="155.98" x2="337.98" y2="140.02" stroke="#141414" stroke-width="2.4"/><text x="330" y="115.0" font-size="16" text-anchor="middle" dominant-baseline="central" font-weight="800" fill="#141414">¿Aceptada?</text><polygon points="392,130 410,148 392,166 374,148" fill="#fff" stroke="#141414" stroke-width="1.8"/><line x1="382.928" y1="148" x2="401.072" y2="148" stroke="#141414" stroke-width="2.6"/><line x1="392" y1="138.928" x2="392" y2="157.072" stroke="#141414" stroke-width="2.6"/><rect x="430.5" y="123.0" width="108" height="56" rx="10" fill="#D9D2BF" stroke="none" stroke-width="1.4"/><rect x="428.0" y="120.0" width="108" height="56" rx="9" fill="#FFF1BF" stroke="#141414" stroke-width="1.8"/><text x="486" y="141.63" font-size="17" text-anchor="middle" dominant-baseline="central" font-weight="500" fill="#141414"><tspan x="486" dy="0">Sonido y</tspan><tspan x="486" dy="20.74">dibujo</tspan></text><circle cx="439.0" cy="131.0" r="4.2" fill="none" stroke="#141414" stroke-width="1.1"/><circle cx="439.0" cy="131.0" r="1.4" fill="#141414"/><circle cx="574" cy="148" r="11" fill="#fff" stroke="#141414" stroke-width="4"/><path d="M108,148 L123,148" fill="none" stroke="#141414" stroke-width="1.9" marker-end="url(#arr)" stroke-linejoin="round"/><path d="M157,148 L183,148" fill="none" stroke="#141414" stroke-width="1.9" marker-end="url(#arr)" stroke-linejoin="round"/><path d="M293,148 L311,148" fill="none" stroke="#141414" stroke-width="1.9" marker-end="url(#arr)" stroke-linejoin="round"/><path d="M349,148 L374,148" fill="none" stroke="#141414" stroke-width="1.9" marker-end="url(#arr)" stroke-linejoin="round"/><text x="361" y="135.0" font-size="16" text-anchor="middle" dominant-baseline="central" font-weight="800" fill="#141414">Sí</text><path d="M410,148 L428,148" fill="none" stroke="#141414" stroke-width="1.9" marker-end="url(#arr)" stroke-linejoin="round"/><path d="M536,148 L563,148" fill="none" stroke="#141414" stroke-width="1.9" marker-end="url(#arr)" stroke-linejoin="round"/><path d="M330,167 L330,192 L250,192" fill="none" stroke="#141414" stroke-width="1.9" marker-end="url(#arr)" stroke-linejoin="round"/><text x="339" y="179.0" font-size="16" text-anchor="start" dominant-baseline="central" font-weight="800" fill="#141414">No</text><circle cx="238" cy="192" r="12" fill="#fff" stroke="#141414" stroke-width="1.6"/><circle cx="238" cy="192" r="8.5" fill="none" stroke="#141414" stroke-width="1.2"/><circle cx="238" cy="192" r="5" fill="none" stroke="#141414" stroke-width="1.1"/><path d="M238,188.5 L238,192 L241.6,194.4" fill="none" stroke="#141414" stroke-width="1.1"/><path d="M226,192 L140,192 L140,165" fill="none" stroke="#141414" stroke-width="1.9" marker-end="url(#arr)" stroke-linejoin="round"/><path d="M392,166 L392,212 L122,212 L122,257" fill="none" stroke="#141414" stroke-width="1.9" marker-end="url(#arr)" stroke-linejoin="round"/><rect x="72.5" y="260.0" width="112" height="54" rx="10" fill="#D9D2BF" stroke="none" stroke-width="1.4"/><rect x="70.0" y="257.0" width="112" height="54" rx="9" fill="#FFF1BF" stroke="#141414" stroke-width="1.8"/><text x="130" y="277.63" font-size="17" text-anchor="middle" dominant-baseline="central" font-weight="500" fill="#141414"><tspan x="130" dy="0">Evaluar y</tspan><tspan x="130" dy="20.74">guardar</tspan></text><circle cx="81.0" cy="268.0" r="4.2" fill="none" stroke="#141414" stroke-width="1.1"/><circle cx="81.0" cy="268.0" r="1.4" fill="#141414"/><polygon points="222,266 240,284 222,302 204,284" fill="#fff" stroke="#141414" stroke-width="1.8"/><circle cx="222" cy="284" r="7.938" fill="none" stroke="#141414" stroke-width="2.4"/><rect x="262.5" y="236.0" width="170" height="42" rx="10" fill="#D9D2BF" stroke="none" stroke-width="1.4"/><rect x="260.0" y="233.0" width="170" height="42" rx="9" fill="#FFF1BF" stroke="#141414" stroke-width="1.8"/><text x="349" y="258.0" font-size="17" text-anchor="middle" dominant-baseline="central" font-weight="500" fill="#141414">Dominio y repaso</text><circle cx="271.0" cy="244.0" r="4.2" fill="none" stroke="#141414" stroke-width="1.1"/><circle cx="271.0" cy="244.0" r="1.4" fill="#141414"/><rect x="262.5" y="296.0" width="170" height="42" rx="10" fill="#D9D2BF" stroke="none" stroke-width="1.4"/><rect x="260.0" y="293.0" width="170" height="42" rx="9" fill="#FFF1BF" stroke="#141414" stroke-width="1.8"/><text x="349" y="318.0" font-size="17" text-anchor="middle" dominant-baseline="central" font-weight="500" fill="#141414">Estrellas y logros</text><circle cx="271.0" cy="304.0" r="4.2" fill="none" stroke="#141414" stroke-width="1.1"/><circle cx="271.0" cy="304.0" r="1.4" fill="#141414"/><polygon points="466,266 484,284 466,302 448,284" fill="#fff" stroke="#141414" stroke-width="1.8"/><circle cx="466" cy="284" r="7.938" fill="none" stroke="#141414" stroke-width="2.4"/><path d="M182,284 L204,284" fill="none" stroke="#141414" stroke-width="1.9" marker-end="url(#arr)" stroke-linejoin="round"/><path d="M222,266 L222,254 L260,254" fill="none" stroke="#141414" stroke-width="1.9" marker-end="url(#arr)" stroke-linejoin="round"/><path d="M222,302 L222,314 L260,314" fill="none" stroke="#141414" stroke-width="1.9" marker-end="url(#arr)" stroke-linejoin="round"/><path d="M430,254 L466,254 L466,266" fill="none" stroke="#141414" stroke-width="1.9" marker-end="url(#arr)" stroke-linejoin="round"/><path d="M430,314 L466,314 L466,302" fill="none" stroke="#141414" stroke-width="1.9" marker-end="url(#arr)" stroke-linejoin="round"/><rect x="262.5" y="377.0" width="200" height="52" rx="10" fill="#D9D2BF" stroke="none" stroke-width="1.4"/><rect x="260.0" y="374.0" width="200" height="52" rx="9" fill="#FFF1BF" stroke="#141414" stroke-width="1.8"/><text x="364" y="393.63" font-size="17" text-anchor="middle" dominant-baseline="central" font-weight="500" fill="#141414"><tspan x="364" dy="0">Planificar la</tspan><tspan x="364" dy="20.74">sesión (MILP)</tspan></text><circle cx="271.0" cy="385.0" r="4.2" fill="none" stroke="#141414" stroke-width="1.1"/><circle cx="271.0" cy="385.0" r="1.4" fill="#141414"/><circle cx="520" cy="400" r="11" fill="#fff" stroke="#141414" stroke-width="4"/><path d="M484,284 L500,284 L500,362 L360,362 L360,374" fill="none" stroke="#141414" stroke-width="1.9" marker-end="url(#arr)" stroke-linejoin="round"/><path d="M460,400 L509,400" fill="none" stroke="#141414" stroke-width="1.9" marker-end="url(#arr)" stroke-linejoin="round"/><rect x="7" y="455.5" width="588" height="76" rx="6" fill="#D9D2BF" stroke="none" stroke-width="1.4"/><rect x="4" y="452" width="588" height="76" rx="6" fill="#fff" stroke="#141414" stroke-width="1.8"/><path d="M10,452 H38 V528 H10 Q4,528 4,522 V458 Q4,452 10,452 Z" fill="#141414"/><text x="21.0" y="490.0" font-size="18" text-anchor="middle" dominant-baseline="central" font-weight="800" fill="#FFCC00" transform="rotate(-90 21.0 490.0)">Adulto</text><circle cx="250" cy="490" r="11" fill="#fff" stroke="#141414" stroke-width="1.6"/><rect x="288.5" y="467.0" width="168" height="52" rx="10" fill="#D9D2BF" stroke="none" stroke-width="1.4"/><rect x="286.0" y="464.0" width="168" height="52" rx="9" fill="#fff" stroke="#141414" stroke-width="1.8"/><text x="374" y="483.63" font-size="17" text-anchor="middle" dominant-baseline="central" font-weight="500" fill="#141414"><tspan x="374" dy="0">Consulta la</tspan><tspan x="374" dy="20.74">Zona de Padres</tspan></text><circle cx="297.0" cy="473.0" r="3.2" fill="none" stroke="#141414" stroke-width="1.1"/><path d="M291.0,482.0 q6,-7 12,0" fill="none" stroke="#141414" stroke-width="1.1"/><circle cx="520" cy="490" r="12" fill="#fff" stroke="#141414" stroke-width="1.6"/><circle cx="520" cy="490" r="8.5" fill="none" stroke="#141414" stroke-width="1.2"/><rect x="514.0" y="485.68" width="12.0" height="8.64" fill="none" stroke="#141414" stroke-width="1.1"/><path d="M514.0,485.68 L520,490.3 L526.0,485.68" fill="none" stroke="#141414" stroke-width="1.1"/><circle cx="576" cy="490" r="11" fill="#fff" stroke="#141414" stroke-width="4"/><path d="M261,490 L286,490" fill="none" stroke="#141414" stroke-width="1.9" marker-end="url(#arr)" stroke-linejoin="round"/><path d="M454,490 L508,490" fill="none" stroke="#141414" stroke-width="1.9" marker-end="url(#arr)" stroke-linejoin="round"/><path d="M532,490 L565,490" fill="none" stroke="#141414" stroke-width="1.9" marker-end="url(#arr)" stroke-linejoin="round"/><path d="M172,71 L172,88 L96,88 L96,136" fill="none" stroke="#141414" stroke-width="1.4" stroke-dasharray="6 4" marker-end="url(#arrO)" marker-start="url(#dot)" stroke-linejoin="round"/><path d="M500,120 L500,71" fill="none" stroke="#141414" stroke-width="1.4" stroke-dasharray="6 4" marker-end="url(#arrO)" marker-start="url(#dot)" stroke-linejoin="round"/><path d="M430,246 L548,246 L548,446 L520,446 L520,478" fill="none" stroke="#141414" stroke-width="1.4" stroke-dasharray="6 4" marker-end="url(#arrO)" marker-start="url(#dot)" stroke-linejoin="round"/></svg>